# xmcd
#
# Track frame offsets: 
#        150
#        50874
#        72347
#        87816
#        116335
#        143479
#        156851
#        173149
#        185316
#        196629
#        213979
#        229232
#        255042
#        271260
#        288369
#        304576
#        329146
#
# Disc length: 4554 seconds
#
# Revision: 0
# Processed by: cddbd v1.5.2PL0 Copyright (c) Steve Scherf et al.
# Submitted via: ExactAudioCopyFreeDBPlugin 1.0
#
DISCID=ea11c811
DTITLE=Daniele Martin - Spotschecht
DYEAR=2014
DGENRE=Blues
TTITLE0=de Alex (s'Läbe esch schön)
TTITLE1=de Fridu
TTITLE2=ech verzelle es Gschechtli
TTITLE3=en schöne Sommertag
TTITLE4=es Fläschli Valser
TTITLE5=es Lied ufschriebe
TTITLE6=Friitig Obig
TTITLE7=Fyrabig Blues
TTITLE8=Jonas
TTITLE9=Mini Schecht
TTITLE10=Mini Schwiz
TTITLE11=Obigverchauf
TTITLE12=Petra
TTITLE13=Sonntig Morge
TTITLE14=Strosseblues
TTITLE15=Türsteherblues
TTITLE16=Wo Wo Wohnige
EXTD=
EXTT0=
EXTT1=
EXTT2=
EXTT3=
EXTT4=
EXTT5=
EXTT6=
EXTT7=
EXTT8=
EXTT9=
EXTT10=
EXTT11=
EXTT12=
EXTT13=
EXTT14=
EXTT15=
EXTT16=
PLAYORDER=
